<svg xmlns="http://www.w3.org/2000/svg" viewBox="0 0 24 24" fill="none" stroke="url(#brass)" stroke-width="1.8" stroke-linecap="round" stroke-linejoin="round" aria-hidden="true"><defs><linearGradient id="brass" x1="4" y1="3" x2="20" y2="21" gradientUnits="userSpaceOnUse"><stop stop-color="#ffe0a0"/><stop offset=".38" stop-color="#d89a43"/><stop offset=".72" stop-color="#a96320"/><stop offset="1" stop-color="#f0bd66"/></linearGradient></defs>
  <path d="M3 11h3a2 2 0 0 1 2 2v3a2 2 0 0 1-2 2H5a2 2 0 0 1-2-2v-5Zm0 0a9 9 0 1 1 18 0m0 0v5a2 2 0 0 1-2 2h-1a2 2 0 0 1-2-2v-3a2 2 0 0 1 2-2h3Z" />
  <path d="M21 16v2a4 4 0 0 1-4 4h-5" />
</svg>